<?xml version="1.0" encoding="utf-8"?>
<!-- Generator: Adobe Illustrator 26.5.0, SVG Export Plug-In . SVG Version: 6.00 Build 0)  -->
<svg version="1.1" id="Layer_1" xmlns="http://www.w3.org/2000/svg" xmlns:xlink="http://www.w3.org/1999/xlink" x="0px" y="0px"
	 viewBox="0 0 1920 1080" style="enable-background:new 0 0 1920 1080;" xml:space="preserve">
<style type="text/css">
	.st0{fill:#291F66;}
	.st1{fill:#52388C;}
	.st2{fill:none;}
	.st3{fill:#417F32;}
	.st4{fill:#44AFCC;}
	.st5{fill:#373754;}
	.st6{clip-path:url(#SVGID_00000137106552276579330020000000805284165437227693_);fill:#B2FFA9;}
	.st7{clip-path:url(#SVGID_00000096020934411920534880000016419614910168002951_);fill:#B2FFA9;}
	.st8{display:none;}
	.st9{display:inline;fill:#F86624;}
	.st10{display:inline;fill:#EA3546;}
	.st11{display:inline;fill:#F427B6;}
	.st12{display:inline;fill:#F45DD4;}
	.st13{display:inline;fill:none;stroke:#CCCCCC;stroke-width:7;stroke-linecap:round;stroke-miterlimit:10;}
	.st14{display:inline;fill:none;stroke:#999999;stroke-width:12;stroke-linecap:round;stroke-miterlimit:10;}
	.st15{display:inline;fill:none;stroke:#808080;stroke-width:7;stroke-linecap:round;stroke-miterlimit:10;}
	.st16{display:inline;fill:none;stroke:#F427B6;stroke-width:5;stroke-linecap:round;stroke-linejoin:round;stroke-miterlimit:10;}
</style>
<g id="Layer_2_00000087414199206016518250000000733180922073641857_">
	<rect x="-18" y="-15" class="st0" width="1961" height="1115"/>
</g>
<g id="Layer_3">
	<path class="st1" d="M1087,717H636c-14.36,0-26-11.64-26-26v-16c0-14.36,11.64-26,26-26h451c14.36,0,26,11.64,26,26v16
		C1113,705.36,1101.36,717,1087,717z"/>
	<path class="st1" d="M1794.5,1000h201.67c18.5,0,33.5,15,33.5,33.5l0,0c0,18.5-15,33.5-33.5,33.5H1794.5c-18.5,0-33.5-15-33.5-33.5
		l0,0C1761,1015,1776,1000,1794.5,1000z"/>
	<path class="st1" d="M431.83,47H288.17C273.72,47,262,35.28,262,20.83V5.17C262-9.28,273.72-21,288.17-21h143.67
		C446.28-21,458-9.28,458,5.17v15.67C458,35.28,446.28,47,431.83,47z"/>
	<path class="st1" d="M1328,142.5v-44c0-8.01-6.49-14.5-14.5-14.5h-493c-8.01,0-14.5,6.49-14.5,14.5v44c0,8.01,6.49,14.5,14.5,14.5
		h44c8.01,0,14.5,6.49,14.5,14.5v10c0,8.01-6.49,14.5-14.5,14.5h-69c-8.01,0-14.5,6.49-14.5,14.5v44c0,8.01,6.49,14.5,14.5,14.5h303
		c8.01,0,14.5-6.49,14.5-14.5v-44c0-8.01-6.49-14.5-14.5-14.5l0,0c-8.01,0-14.5-6.49-14.5-14.5v-10c0-8.01,6.49-14.5,14.5-14.5h215
		C1321.51,157,1328,150.51,1328,142.5z"/>
	<path class="st1" d="M1428,469.5v44c0,8.01,6.49,14.5,14.5,14.5h493c8.01,0,14.5-6.49,14.5-14.5v-44c0-8.01-6.49-14.5-14.5-14.5
		h-44c-8.01,0-14.5-6.49-14.5-14.5v-10c0-8.01,6.49-14.5,14.5-14.5h69c8.01,0,14.5-6.49,14.5-14.5v-44c0-8.01-6.49-14.5-14.5-14.5
		h-303c-8.01,0-14.5,6.49-14.5,14.5v44c0,8.01,6.49,14.5,14.5,14.5l0,0c8.01,0,14.5,6.49,14.5,14.5v10c0,8.01-6.49,14.5-14.5,14.5
		h-215C1434.49,455,1428,461.49,1428,469.5z"/>
	<path class="st1" d="M2012,34h-451c-14.36,0-26-11.64-26-26V-8c0-14.36,11.64-26,26-26h451c14.36,0,26,11.64,26,26V8
		C2038,22.36,2026.36,34,2012,34z"/>
</g>
<g id="Layer_1_00000124867224702586454470000001144228760956122812_">
	<polygon class="st2" points="-21,499 -18,499 -18,499 	"/>
	<circle class="st3" cx="230.5" cy="765.5" r="615.5"/>
	<path class="st4" d="M706,1024v-11c0-15.46-12.54-28-28-28H338c-15.46,0-28-12.54-28-28v-11c0-15.46,12.54-28,28-28h203
		c15.46,0,28-12.54,28-28v-11c0-15.46-12.54-28-28-28h-74c-15.46,0-28-12.54-28-28v-11c0-15.46-12.54-28-28-28h-23
		c-15.46,0-28-12.54-28-28v-11c0-15.46,12.54-28,28-28h119c15.46,0,28-12.54,28-28v-11c0-15.46-12.54-28-28-28H338
		c-15.46,0-28-12.54-28-28v-4c0-15.46,12.54-28,28-28h94c15.46,0,28-12.54,28-28v-11c0-15.46-12.54-28-28-28h-60
		c-15.46,0-28-12.54-28-28v-11c0-15.46,12.54-28,28-28h72c15.46,0,28-12.54,28-28v-11c0-15.46-12.54-28-28-28h-4
		c-15.46,0-28-12.54-28-28v-8c0-15.46,12.54-28,28-28h62c15.46,0,28-12.54,28-28v-11c0-15.46-12.54-28-28-28H254
		c-15.46,0-28-12.54-28-28v-8c0-15.46,12.54-28,28-28h62c15.46,0,28-12.54,28-28v-5.92C307.84,153.47,270.57,150,232.5,150
		c-140.32,0-269.66,46.96-373.19,126.01c1.72,3.63,2.69,7.7,2.69,11.99v6c0,15.46-12.54,28-28,28h-28.27
		c-19.1,18.39-37.02,37.99-53.63,58.69c5.07,5.13,12.12,8.31,19.9,8.31h4c15.46,0,28,12.54,28,28v11c0,15.46-12.54,28-28,28h-72
		c-1.28,0-2.54,0.09-3.78,0.26c-8.45,14.51-16.33,29.4-23.59,44.64c2.71,12.63,13.93,22.1,27.37,22.1h60c15.46,0,28,12.54,28,28v11
		c0,15.46-12.54,28-28,28h-94c-15.46,0-28,12.54-28,28v11c0,15.46,12.54,28,28,28h169c15.46,0,28,12.54,28,28v4
		c0,15.46-12.54,28-28,28h-119c-15.46,0-28,12.54-28,28v11c0,15.46,12.54,28,28,28h23c15.46,0,28,12.54,28,28v11
		c0,15.46,12.54,28,28,28h74c15.46,0,28,12.54,28,28v11c0,15.46-12.54,28-28,28h-203c-13.81,0-25.27,10-27.57,23.15
		c4.02,13.54,8.51,26.88,13.42,40.01C-340,983.6-335.16,985-330,985h225c15.46,0,28,12.54,28,28v8c0,15.46-12.54,28-28,28l0,0
		c-15.46,0-28,12.54-28,28v11c0,15.46,12.54,28,28,28h612c15.46,0,28-12.54,28-28v-8c0-15.46,12.54-28,28-28h115
		C693.46,1052,706,1039.46,706,1024z"/>
</g>
<g id="Layer_4">
	<circle class="st5" cx="43.5" cy="69.5" r="80.5"/>
	<g>
		<g>
			<defs>
				<circle id="SVGID_1_" cx="51.5" cy="69.5" r="80.5"/>
			</defs>
			<clipPath id="SVGID_00000135670401597029593470000010961461712277222283_">
				<use xlink:href="#SVGID_1_"  style="overflow:visible;"/>
			</clipPath>
			<path style="clip-path:url(#SVGID_00000135670401597029593470000010961461712277222283_);fill:#B2FFA9;" d="M207.5,58h-45
				c3.04,0,5.5-2.46,5.5-5.5V52c0-3.04-2.46-5.5-5.5-5.5h31c3.04,0,5.5-2.46,5.5-5.5v-0.5c0-3.04-2.46-5.5-5.5-5.5h-13
				c3.04,0,5.5-2.46,5.5-5.5V29c0-3.04-2.46-5.5-5.5-5.5h12c3.04,0,5.5-2.46,5.5-5.5v-0.5c0-3.04-2.46-5.5-5.5-5.5h13
				c3.04,0,5.5-2.46,5.5-5.5V6c0-3.04-2.46-5.5-5.5-5.5h-9c3.04,0,5.5-2.46,5.5-5.5v-0.5c0-3.04-2.46-5.5-5.5-5.5h-142
				C51.46-11,49-8.54,49-5.5V-5c0,3.04,2.46,5.5,5.5,5.5h9C60.46,0.5,58,2.96,58,6v0.5c0,3.04,2.46,5.5,5.5,5.5h-13
				c-3.04,0-5.5,2.46-5.5,5.5V18c0,3.04,2.46,5.5,5.5,5.5h-12c-3.04,0-5.5,2.46-5.5,5.5v0.5c0,3.04,2.46,5.5,5.5,5.5h13
				c-3.04,0-5.5,2.46-5.5,5.5V41c0,3.04,2.46,5.5,5.5,5.5h-31c-3.04,0-5.5,2.46-5.5,5.5v0.5c0,3.04,2.46,5.5,5.5,5.5h45
				c-3.04,0-5.5,2.46-5.5,5.5V64c0,3.04,2.46,5.5,5.5,5.5h-19c-3.04,0-5.5,2.46-5.5,5.5v0.5c0,3.04,2.46,5.5,5.5,5.5h7
				c-3.04,0-5.5,2.46-5.5,5.5V87c0,3.04,2.46,5.5,5.5,5.5h-22c-3.04,0-5.5,2.46-5.5,5.5v0.5c0,3.04,2.46,5.5,5.5,5.5h14
				c-3.04,0-5.5,2.46-5.5,5.5v0.5c0,3.04,2.46,5.5,5.5,5.5h-23c-3.04,0-5.5,2.46-5.5,5.5v0.5c0,3.04,2.46,5.5,5.5,5.5h35
				c-3.04,0-5.5,2.46-5.5,5.5v0.5c0,3.04,2.46,5.5,5.5,5.5h-11c-3.04,0-5.5,2.46-5.5,5.5v0.5c0,3.04,2.46,5.5,5.5,5.5h142
				c3.04,0,5.5-2.46,5.5-5.5V144c0-3.04-2.46-5.5-5.5-5.5h11c3.04,0,5.5-2.46,5.5-5.5v-0.5c0-3.04-2.46-5.5-5.5-5.5h-35
				c3.04,0,5.5-2.46,5.5-5.5V121c0-3.04-2.46-5.5-5.5-5.5h23c3.04,0,5.5-2.46,5.5-5.5v-0.5c0-3.04-2.46-5.5-5.5-5.5h-14
				c3.04,0,5.5-2.46,5.5-5.5V98c0-3.04-2.46-5.5-5.5-5.5h22c3.04,0,5.5-2.46,5.5-5.5v-0.5c0-3.04-2.46-5.5-5.5-5.5h-7
				c3.04,0,5.5-2.46,5.5-5.5V75c0-3.04-2.46-5.5-5.5-5.5h19c3.04,0,5.5-2.46,5.5-5.5v-0.5C213,60.46,210.54,58,207.5,58z"/>
		</g>
	</g>
</g>
<g id="Layer_5">
	<circle class="st5" cx="963" cy="564" r="59"/>
	<g>
		<g>
			<defs>
				<circle id="SVGID_00000134943559047326560860000009125366592393897868_" cx="963" cy="564" r="59"/>
			</defs>
			<clipPath id="SVGID_00000103966598393675609420000010540922602789227946_">
				<use xlink:href="#SVGID_00000134943559047326560860000009125366592393897868_"  style="overflow:visible;"/>
			</clipPath>
			<path style="clip-path:url(#SVGID_00000103966598393675609420000010540922602789227946_);fill:#B2FFA9;" d="M971,509.5v-3
				c0-1.38-1.12-2.5-2.5-2.5h-59c-1.38,0-2.5,1.12-2.5,2.5v3c0,1.38-1.12,2.5-2.5,2.5h-9c-1.38,0-2.5,1.12-2.5,2.5v3
				c0,1.38,1.12,2.5,2.5,2.5h1c1.38,0,2.5,1.12,2.5,2.5v3c0,1.38-1.12,2.5-2.5,2.5h-13c-1.38,0-2.5,1.12-2.5,2.5v3
				c0,1.38,1.12,2.5,2.5,2.5l0,0c1.38,0,2.5,1.12,2.5,2.5v3c0,1.38-1.12,2.5-2.5,2.5h-5c-1.38,0-2.5,1.12-2.5,2.5v3
				c0,1.38,1.12,2.5,2.5,2.5h18c1.38,0,2.5,1.12,2.5,2.5v3c0,1.38-1.12,2.5-2.5,2.5h-11c-1.38,0-2.5,1.12-2.5,2.5v3
				c0,1.38-1.12,2.5-2.5,2.5h-14c-1.38,0-2.5,1.12-2.5,2.5v3c0,1.38,1.12,2.5,2.5,2.5h25c1.38,0,2.5,1.12,2.5,2.5v3
				c0,1.38-1.12,2.5-2.5,2.5h-9c-1.38,0-2.5,1.12-2.5,2.5v3c0,1.38-1.12,2.5-2.5,2.5h-8c-1.38,0-2.5,1.12-2.5,2.5v3
				c0,1.38,1.12,2.5,2.5,2.5h9c1.38,0,2.5,1.12,2.5,2.5v3c0,1.38,1.12,2.5,2.5,2.5h13c1.38,0,2.5,1.12,2.5,2.5v3
				c0,1.38-1.12,2.5-2.5,2.5h-6c-1.38,0-2.5,1.12-2.5,2.5v3c0,1.38,1.12,2.5,2.5,2.5h59c1.38,0,2.5-1.12,2.5-2.5v-3
				c0-1.38,1.12-2.5,2.5-2.5h6c1.38,0,2.5-1.12,2.5-2.5v-3c0-1.38-1.12-2.5-2.5-2.5h-13c-1.38,0-2.5-1.12-2.5-2.5v-3
				c0-1.38-1.12-2.5-2.5-2.5h-9c-1.38,0-2.5-1.12-2.5-2.5v-3c0-1.38,1.12-2.5,2.5-2.5h8c1.38,0,2.5-1.12,2.5-2.5v-3
				c0-1.38,1.12-2.5,2.5-2.5h9c1.38,0,2.5-1.12,2.5-2.5v-3c0-1.38-1.12-2.5-2.5-2.5h-25c-1.38,0-2.5-1.12-2.5-2.5v-3
				c0-1.38,1.12-2.5,2.5-2.5h14c1.38,0,2.5-1.12,2.5-2.5v-3c0-1.38,1.12-2.5,2.5-2.5h11c1.38,0,2.5-1.12,2.5-2.5v-3
				c0-1.38-1.12-2.5-2.5-2.5h-18c-1.38,0-2.5-1.12-2.5-2.5v-3c0-1.38,1.12-2.5,2.5-2.5h5c1.38,0,2.5-1.12,2.5-2.5v-3
				c0-1.38-1.12-2.5-2.5-2.5l0,0c-1.38,0-2.5-1.12-2.5-2.5v-3c0-1.38,1.12-2.5,2.5-2.5h13c1.38,0,2.5-1.12,2.5-2.5v-3
				c0-1.38-1.12-2.5-2.5-2.5h-1c-1.38,0-2.5-1.12-2.5-2.5v-3c0-1.38,1.12-2.5,2.5-2.5h9C969.88,512,971,510.88,971,509.5z"/>
		</g>
	</g>
</g>
<g id="Layer_6" class="st8">
	<path class="st9" d="M541.98,84.46c-10.49,3.7-41.89-15.03-41.89-15.03l19.33-12.54l-17.53-18.77l42.97,4.29l-5.43-14.57
		c0,0,13.31-1.19,16.82,1.15c4.11,2.75,8.8,17.71,8.8,17.71S552.41,80.78,541.98,84.46z"/>
	<path class="st10" d="M544.85,80.2c-8.4,2.96-33.53-12.03-33.53-12.03l15.47-10.03l-14.03-15.02l34.39,3.43l-4.34-11.66
		c0,0,10.66-0.95,13.46,0.92c3.29,2.2,7.05,14.17,7.05,14.17S553.2,77.26,544.85,80.2z"/>
	<circle class="st11" cx="597.12" cy="89.02" r="53"/>
	<circle class="st12" cx="591.17" cy="84.5" r="45.17"/>
	<line class="st13" x1="534.56" y1="34.8" x2="394.56" y2="-47.2"/>
	<line class="st14" x1="496.56" y1="43.8" x2="356.56" y2="-38.2"/>
	<line class="st14" x1="501.56" y1="23.8" x2="361.56" y2="-58.2"/>
	<line class="st15" x1="492.56" y1="49.8" x2="352.56" y2="-32.2"/>
	<line class="st13" x1="502" y1="61" x2="362" y2="-21"/>
	<line class="st15" x1="532.56" y1="25.8" x2="392.56" y2="-56.2"/>
	<line class="st15" x1="431.56" y1="25.8" x2="291.56" y2="-56.2"/>
	<polygon class="st16" points="632.5,54.2 614.5,54.2 605.5,69.79 614.5,85.38 632.5,85.38 641.5,69.79 	"/>
</g>
</svg>
