<?xml version="1.0" encoding="utf-8"?>
<!-- Generator: Adobe Illustrator 26.5.0, SVG Export Plug-In . SVG Version: 6.00 Build 0)  -->
<svg version="1.1" id="Layer_1" xmlns="http://www.w3.org/2000/svg" xmlns:xlink="http://www.w3.org/1999/xlink" x="0px" y="0px"
	 viewBox="0 0 1920 1080" style="enable-background:new 0 0 1920 1080;" xml:space="preserve">
<style type="text/css">
	.st0{display:none;}
	.st1{display:inline;fill:#291F66;}
	.st2{display:none;fill:#52388C;}
	.st3{enable-background:new    ;}
	.st4{fill:#F9C80E;}
	.st5{display:inline;fill:none;}
	.st6{display:inline;fill:#417F32;}
	.st7{display:inline;fill:#44AFCC;}
	.st8{display:inline;fill:#373754;}
	.st9{display:inline;}
	.st10{clip-path:url(#SVGID_00000069380271621309644870000013862025689822882481_);fill:#B2FFA9;}
	.st11{clip-path:url(#SVGID_00000046326117515098642400000004979752104770221727_);fill:#B2FFA9;}
	.st12{display:inline;fill:#F86624;}
	.st13{display:inline;fill:#EA3546;}
	.st14{display:inline;fill:#F427B6;}
	.st15{display:inline;fill:#F45DD4;}
	.st16{display:inline;fill:none;stroke:#CCCCCC;stroke-width:7;stroke-linecap:round;stroke-miterlimit:10;}
	.st17{display:inline;fill:none;stroke:#999999;stroke-width:12;stroke-linecap:round;stroke-miterlimit:10;}
	.st18{display:inline;fill:none;stroke:#808080;stroke-width:7;stroke-linecap:round;stroke-miterlimit:10;}
	.st19{display:inline;fill:none;stroke:#F427B6;stroke-width:5;stroke-linecap:round;stroke-linejoin:round;stroke-miterlimit:10;}
</style>
<g id="Layer_2_00000126323471774490542870000013361880834127893163_" class="st0">
	<rect x="-18" y="-15" class="st1" width="1961" height="1115"/>
</g>
<g id="Layer_3">
	<path class="st2" d="M1087,717H636c-14.4,0-26-11.6-26-26v-16c0-14.4,11.6-26,26-26h451c14.4,0,26,11.6,26,26v16
		C1113,705.4,1101.4,717,1087,717z"/>
	<path class="st2" d="M1794.5,1000h201.7c18.5,0,33.5,15,33.5,33.5l0,0c0,18.5-15,33.5-33.5,33.5h-201.7c-18.5,0-33.5-15-33.5-33.5
		l0,0C1761,1015,1776,1000,1794.5,1000z"/>
	<path class="st2" d="M431.8,47H288.2C273.7,47,262,35.3,262,20.8V5.2C262-9.3,273.7-21,288.2-21h143.7C446.3-21,458-9.3,458,5.2
		v15.7C458,35.3,446.3,47,431.8,47z"/>
	<path class="st2" d="M1328,142.5v-44c0-8-6.5-14.5-14.5-14.5h-493c-8,0-14.5,6.5-14.5,14.5v44c0,8,6.5,14.5,14.5,14.5h44
		c8,0,14.5,6.5,14.5,14.5v10c0,8-6.5,14.5-14.5,14.5h-69c-8,0-14.5,6.5-14.5,14.5v44c0,8,6.5,14.5,14.5,14.5h303
		c8,0,14.5-6.5,14.5-14.5v-44c0-8-6.5-14.5-14.5-14.5l0,0c-8,0-14.5-6.5-14.5-14.5v-10c0-8,6.5-14.5,14.5-14.5h215
		C1321.5,157,1328,150.5,1328,142.5z"/>
	<path class="st2" d="M1428,469.5v44c0,8,6.5,14.5,14.5,14.5h493c8,0,14.5-6.5,14.5-14.5v-44c0-8-6.5-14.5-14.5-14.5h-44
		c-8,0-14.5-6.5-14.5-14.5v-10c0-8,6.5-14.5,14.5-14.5h69c8,0,14.5-6.5,14.5-14.5v-44c0-8-6.5-14.5-14.5-14.5h-303
		c-8,0-14.5,6.5-14.5,14.5v44c0,8,6.5,14.5,14.5,14.5l0,0c8,0,14.5,6.5,14.5,14.5v10c0,8-6.5,14.5-14.5,14.5h-215
		C1434.5,455,1428,461.5,1428,469.5z"/>
	<path class="st2" d="M2012,34h-451c-14.4,0-26-11.6-26-26V-8c0-14.4,11.6-26,26-26h451c14.4,0,26,11.6,26,26V8
		C2038,22.4,2026.4,34,2012,34z"/>
	<g class="st3">
		<path class="st4" d="M1422.2,614.6c-2.5,1.5-6.2,2.9-10.9,4.4c-4.7,1.5-10.6,3.1-17.5,4.8c-6.1,1.5-11.7,3.2-16.8,5.3
			c-5.1,2.1-9.5,4.4-13.4,7.1c-5.1,3.5-7.6,5.7-7.6,6.8c0,1.7,0,3.9,0,6.4c0,2.4,0.1,5.3,0.2,8.6v15.2c0,8.9,1.8,15.7,5.4,20.2
			h-47.4c3.9-3.2,5.8-9.9,5.8-20.2v-95.4c0-2.7-0.5-5.3-1.6-8c-1.1-2.7-2.1-5.3-3.2-7.8h90.2c2,0,5.1,0.7,9.2,2
			c14.9,4.4,22.4,13.5,22.4,27.2C1437,601.3,1432,609.1,1422.2,614.6z M1364.8,570.6h-8.6v59.6c24.9-14.9,37.4-28.1,37.4-39.4
			C1393.6,577.3,1384,570.6,1364.8,570.6z"/>
		<path class="st4" d="M1443.2,693.6c3.3-5.1,5-10.5,5-16.4v-97.4c0-7.3-1.9-13.5-5.8-18.6h38.6c-0.3,1.1-0.4,1.8-0.4,2.2v113.8
			c0,0.5,0.7,3.1,2.2,7.8c1.3,4.4,2.3,7.2,3,8.4L1443.2,693.6z"/>
		<path class="st4" d="M1558.8,693.4l-2.8-7.8c-8.3,7.2-17,10.8-26.2,10.8c-8.9,0-16.5-2.5-22.6-7.4c-6.8-5.3-10.2-12.3-10.2-21
			c0-7.9,2.8-14.7,8.4-20.6c5.1-5.1,11.6-8.9,19.6-11.4c5.3-1.7,10.3-3.5,14.8-5.4c3.5-1.5,7-2.9,10.6-4.4c3.9-2.3,5.8-5.3,5.8-9.2
			c0-8.8-3.5-13.2-10.4-13.2c-5.6,0-8.4,2.3-8.4,6.8c0,0.9,0.3,2.2,1,3.7c0.7,1.5,1,2.8,1,3.7c0,1.7-2.3,3.4-7,5
			c-3.6,1.3-6.7,2-9.2,2c-6.8,0-12.3-3.5-16.4-10.4c-3.6-5.7-5.4-12.2-5.4-19.4c0-1.1,0.1-1.6,0.4-1.6c0.1,0,0.6,0.2,1.3,0.5
			c0.7,0.3,1.5,0.7,2.3,1c0.8,0.3,1.6,0.7,2.5,1c0.9,0.3,1.6,0.5,2.3,0.5h2.4c4.7,0,8.7-0.1,12.2-0.2c3.5-0.1,6.5-0.3,9-0.6
			c0.7-0.1,1.5-0.3,2.6-0.5c1.1-0.2,2.5-0.5,4.2-0.9c3.1-0.7,5.3-1,6.8-1c15.7,0,26.7,2.5,32.8,7.6c6.5,5.6,9.8,16.2,9.8,31.8V675
			c0,4.3,1.5,10.4,4.6,18.4H1558.8z M1539.3,647c-5.2,6.8-7.8,13-7.8,18.6c0,4.4,1,8.1,3,11c2.4,3.5,5.6,5.2,9.6,5.2
			c2,0,4.3-1.2,7-3.6c2.8-2.4,4.2-4.6,4.2-6.6v-23.8c0-1.5,0-3.2,0-5.2s0.1-4.3,0.2-7C1550.1,636.3,1544.7,640.1,1539.3,647z"/>
		<path class="st4" d="M1685.5,693.6c-4.7-0.1-8.8-0.2-12.4-0.2c-3.6,0-6.5,0-8.8,0c3.6-4.9,5.4-14.1,5.4-27.6c0-2.7,0-5.9,0-9.8
			c0-3.9-0.1-8.5-0.2-13.8c-0.1-5.3-0.2-9.9-0.2-13.8c0-3.9,0-7.1,0-9.8c0-3.2-1-6-3.1-8.5c-2.1-2.5-4.7-3.7-7.9-3.7
			c-3.7,0-6.9,1.2-9.4,3.7c-2.5,2.5-4,5.6-4.4,9.3v13.8v22.4c-0.1,4.9-0.2,9.3-0.2,13c0,3.6,0,6.7,0,9.2c0,6.4,1.6,11.7,4.8,15.8
			h-42.8c3.3-3.9,5-9.4,5-16.6v-60.8c0-5.5-1.5-12.6-4.6-21.4h38v9c5.5-6.7,13.8-10,25-10c4.9,0,9.4,0.9,13.4,2.6
			c4,1.7,7.4,4.1,10.2,7.1c2.8,3,5,6.6,6.5,10.9c1.5,4.3,2.3,8.9,2.3,13.8v23v13c-0.1,2.9-0.2,5.5-0.2,7.6s0,3.9,0,5.4
			c0,6.4,1.7,11.9,5,16.4H1685.5z"/>
		<path class="st4" d="M1755.5,644v9.4c0,10.1,1.2,17.7,3.6,22.6c3.3,7.2,9.5,10.8,18.4,10.8c6,0,10.9-1.7,14.6-5.2
			c3.7-3.5,5.6-8.1,5.6-13.8c0-4-1.3-7.9-4-11.6c2.8-1.1,4.8-1.6,6-1.6c4.4,0,7.9,1.3,10.4,4c2.5,2.7,3.8,6.2,3.8,10.6
			c0,8.4-4.5,15.1-13.6,20.2c-7.7,4.3-16.1,6.4-25.2,6.4c-17.9,0-31.8-4.4-41.8-13.2c-10.7-9.2-16-22.6-16-40.2
			c0-15.2,4.7-27.3,14.2-36.4c9.3-8.9,21.7-13.4,37.2-13.4c10.8,0,20.5,2.8,29.2,8.4c9.5,6,15.2,14.1,17.2,24.2
			c0.5,2.7,0.9,5.1,1.2,7.4c0.3,2.3,0.4,4.5,0.4,6.6c0,0.7,0,1.4,0,2.2c0,0.8-0.1,1.6-0.2,2.4L1755.5,644z M1780.7,618.4
			c0-11.9-3.8-17.8-11.4-17.8c-4.9,0-8.5,2.5-10.8,7.6c-1.1,2.8-1.9,7.5-2.6,14.2c-0.1,1.3-0.2,2.7-0.3,4.1
			c-0.1,1.4-0.1,2.9-0.1,4.5c0,0.4,0,0.9,0,1.6c0,0.7,0.1,1.5,0.2,2.4h25V618.4z"/>
		<path class="st4" d="M1875.3,689.8c-3.9,3.7-9.3,5.6-16.2,5.6c-5.7,0-10.8-1.6-15.1-4.7c-4.3-3.1-7.4-7.4-9.1-12.7
			c-0.5-1.5-0.8-3.9-0.8-7.4l-0.4-64.2v-2c-0.4-0.1-1.1-0.2-2-0.2c-0.7,0-1.6,0.1-2.8,0.2c-1.2,0.1-2.1,0.2-2.8,0.2l0.2-2.4
			c1.3-1.1,2.7-2.2,4-3.4c1.3-1.2,2.7-2.3,4.2-3.4c1.5-1.5,2.8-2.8,4-4.1c1.2-1.3,2.1-2.6,2.8-3.9c5.1-8.4,9.5-14.7,13.4-18.8
			c2.3-2.4,5.4-4.7,9.4-7c4.1-2.4,7.6-3.6,10.4-3.6h1.8h3.4l-0.4,3.2c-4,1.2-7.2,5.2-9.6,12c-1.9,5.6-2.8,10.9-2.8,16v5.4h14.4V605
			h-14.4v58c0,0.5-0.1,1.4-0.2,2.6c-0.1,1.2-0.2,2.1-0.2,2.8c0,4.5,2.8,6.8,8.4,6.8c-0.3,0,2-0.7,6.8-2
			C1881.3,680.5,1879.2,686.1,1875.3,689.8z"/>
	</g>
	<g class="st3">
		<path class="st4" d="M935.2,945.6c-20.1,0-36.1-6.5-48-19.6c-11.3-12.5-17-29-17-49.4c0-19.9,6.2-35.6,18.6-47.2
			c12.1-11.5,28.1-17.2,48-17.2c4.5,0.4,9.1,0.9,13.8,1.4l27.4,2.8c5.5-0.9,11-1.9,16.6-3c0.9,1.7,1.4,3.3,1.4,4.8
			c0,4-1.7,8.7-5.2,14c-3.5,5.1-7.1,8.5-10.8,10.2c-4.4,2.1-8.9,3.2-13.6,3.2c-8.1,0-13.9-2.2-17.2-6.6c0.7-2,1-3.7,1-5.2
			c0-3.9-1.5-6.9-4.6-9.2c-3.1-2.3-6.5-3.4-10.4-3.4c-9.7,0-16.7,6.5-21,19.6c-2.7,8.8-4,19.3-4,31.6c0,19.1,2.3,33.3,6.8,42.8
			c6.4,14,17.9,21,34.6,21c1.2,0,2.5-0.5,4-1.4v-56.4c0-1.3-2.2-4.7-6.6-10.2l48,0.2c-2.9,4.1-4.7,8.9-5.2,14.2
			c-0.1,1.1-0.2,2.9-0.3,5.5c-0.1,2.6-0.1,5.9-0.1,9.9c0,1.7,0,3.9,0,6.4c0,2.4,0.1,5.3,0.2,8.6v15.2c0,5.6,2.2,11.4,6.6,17.4H935.2
			z"/>
		<path class="st4" d="M1080.2,945.4h-6.2c-0.1-2-0.1-5.5,0-10.4c-2.9,2.1-5.6,3.9-7.9,5.4c-2.3,1.5-4.4,2.6-6.3,3.4
			c-4.8,1.9-10.3,2.8-16.4,2.8c-3.7,0-7.3-0.9-10.8-2.6c-11.6-5.7-17.4-15.3-17.4-28.6v-49.8c0-8.5-1.5-14.9-4.4-19h37v0.2v0.4v1.8
			l-0.2,7.4v61.2c0,3.9,0.9,7.3,2.8,10.2c2,3.2,4.9,4.8,8.8,4.8c3.9,0,7.3-1.8,10.4-5.4c3.2-3.6,4.8-7.3,4.8-11.2v-50.8
			c0-8.1-1.5-14.3-4.6-18.6h38v83c0,6.5,1.8,11.8,5.4,15.8H1080.2z"/>
		<path class="st4" d="M1124.2,945.6c3.3-5.1,5-10.5,5-16.4v-63.6c0-1.6-0.7-4.7-2.2-9.4c-1.3-4.3-2.5-7.3-3.6-9.2h38.6
			c-0.4,0.8-0.6,1.5-0.6,2.2l0.2,80c0-0.4,0.2,0.6,0.6,3c0.4,2.7,1.6,7.1,3.6,13.4H1124.2z M1155.7,838.4c-3,3.2-6.6,4.8-10.7,4.8
			c-4.3,0-8-1.5-11.2-4.6c-3.2-3.1-4.8-6.7-4.8-11c0-4.3,1.4-8,4.2-11.2c2.8-3.2,6.3-4.8,10.4-4.8c4.7,0,8.6,1.5,11.8,4.5
			c3.2,3,4.8,6.8,4.8,11.3C1160.2,831.5,1158.7,835.2,1155.7,838.4z"/>
		<path class="st4" d="M1260.4,945.6c-4.7-0.1-8.8-0.2-12.4-0.2c-3.6,0-6.5,0-8.8,0c3.6-4.9,5.4-14.1,5.4-27.6c0-2.7,0-5.9,0-9.8
			c0-3.9-0.1-8.5-0.2-13.8c-0.1-5.3-0.2-9.9-0.2-13.8c0-3.9,0-7.1,0-9.8c0-3.2-1-6-3.1-8.5c-2.1-2.5-4.7-3.7-7.9-3.7
			c-3.7,0-6.9,1.2-9.4,3.7c-2.5,2.5-4,5.6-4.4,9.3v13.8v22.4c-0.1,4.9-0.2,9.3-0.2,13c0,3.6,0,6.7,0,9.2c0,6.4,1.6,11.7,4.8,15.8
			h-42.8c3.3-3.9,5-9.4,5-16.6v-60.8c0-5.5-1.5-12.6-4.6-21.4h38v9c5.5-6.7,13.8-10,25-10c4.9,0,9.4,0.9,13.4,2.6
			c4,1.7,7.4,4.1,10.2,7.1s5,6.6,6.5,10.9c1.5,4.3,2.3,8.9,2.3,13.8v23v13c-0.1,2.9-0.2,5.5-0.2,7.6s0,3.9,0,5.4
			c0,6.4,1.7,11.9,5,16.4H1260.4z"/>
		<path class="st4" d="M1330.4,896v9.4c0,10.1,1.2,17.7,3.6,22.6c3.3,7.2,9.5,10.8,18.4,10.8c6,0,10.9-1.7,14.6-5.2
			c3.7-3.5,5.6-8.1,5.6-13.8c0-4-1.3-7.9-4-11.6c2.8-1.1,4.8-1.6,6-1.6c4.4,0,7.9,1.3,10.4,4c2.5,2.7,3.8,6.2,3.8,10.6
			c0,8.4-4.5,15.1-13.6,20.2c-7.7,4.3-16.1,6.4-25.2,6.4c-17.9,0-31.8-4.4-41.8-13.2c-10.7-9.2-16-22.6-16-40.2
			c0-15.2,4.7-27.3,14.2-36.4c9.3-8.9,21.7-13.4,37.2-13.4c10.8,0,20.5,2.8,29.2,8.4c9.5,6,15.2,14.1,17.2,24.2
			c0.5,2.7,0.9,5.1,1.2,7.4c0.3,2.3,0.4,4.5,0.4,6.6c0,0.7,0,1.4,0,2.2c0,0.8-0.1,1.6-0.2,2.4L1330.4,896z M1355.6,870.4
			c0-11.9-3.8-17.8-11.4-17.8c-4.9,0-8.5,2.5-10.8,7.6c-1.1,2.8-1.9,7.5-2.6,14.2c-0.1,1.3-0.2,2.7-0.3,4.1
			c-0.1,1.4-0.1,2.9-0.1,4.5c0,0.4,0,0.9,0,1.6c0,0.7,0.1,1.5,0.2,2.4h25V870.4z"/>
		<path class="st4" d="M1465.6,945.4l-2.8-7.8c-8.3,7.2-17,10.8-26.2,10.8c-8.9,0-16.5-2.5-22.6-7.4c-6.8-5.3-10.2-12.3-10.2-21
			c0-7.9,2.8-14.7,8.4-20.6c5.1-5.1,11.6-8.9,19.6-11.4c5.3-1.7,10.3-3.5,14.8-5.4c3.5-1.5,7-2.9,10.6-4.4c3.9-2.3,5.8-5.3,5.8-9.2
			c0-8.8-3.5-13.2-10.4-13.2c-5.6,0-8.4,2.3-8.4,6.8c0,0.9,0.3,2.2,1,3.7c0.7,1.5,1,2.8,1,3.7c0,1.7-2.3,3.4-7,5
			c-3.6,1.3-6.7,2-9.2,2c-6.8,0-12.3-3.5-16.4-10.4c-3.6-5.7-5.4-12.2-5.4-19.4c0-1.1,0.1-1.6,0.4-1.6c0.1,0,0.6,0.2,1.3,0.5
			c0.7,0.3,1.5,0.7,2.3,1c0.8,0.3,1.6,0.7,2.5,1c0.9,0.3,1.6,0.5,2.3,0.5h2.4c4.7,0,8.7-0.1,12.2-0.2c3.5-0.1,6.5-0.3,9-0.6
			c0.7-0.1,1.5-0.3,2.6-0.5c1.1-0.2,2.5-0.5,4.2-0.9c3.1-0.7,5.3-1,6.8-1c15.7,0,26.7,2.5,32.8,7.6c6.5,5.6,9.8,16.2,9.8,31.8V927
			c0,4.3,1.5,10.4,4.6,18.4H1465.6z M1446.2,899c-5.2,6.8-7.8,13-7.8,18.6c0,4.4,1,8.1,3,11c2.4,3.5,5.6,5.2,9.6,5.2
			c2,0,4.3-1.2,7-3.6c2.8-2.4,4.2-4.6,4.2-6.6v-23.8c0-1.5,0-3.2,0-5.2s0.1-4.3,0.2-7C1456.9,888.3,1451.5,892.1,1446.2,899z"/>
		<path class="st4" d="M1703.4,866.6c-2.5,1.5-6.2,2.9-10.9,4.4c-4.7,1.5-10.6,3.1-17.5,4.8c-6.1,1.5-11.7,3.2-16.8,5.3
			c-5.1,2.1-9.5,4.4-13.4,7.1c-5.1,3.5-7.6,5.7-7.6,6.8c0,1.7,0,3.9,0,6.4c0,2.4,0.1,5.3,0.2,8.6v15.2c0,8.9,1.8,15.7,5.4,20.2
			h-47.4c3.9-3.2,5.8-9.9,5.8-20.2v-95.4c0-2.7-0.5-5.3-1.6-8c-1.1-2.7-2.1-5.3-3.2-7.8h90.2c2,0,5.1,0.7,9.2,2
			c14.9,4.4,22.4,13.5,22.4,27.2C1718.2,853.3,1713.2,861.1,1703.4,866.6z M1646,822.6h-8.6v59.6c24.9-14.9,37.4-28.1,37.4-39.4
			C1674.8,829.3,1665.2,822.6,1646,822.6z"/>
		<path class="st4" d="M1724.4,945.6c3.3-5.1,5-10.5,5-16.4v-63.6c0-1.6-0.7-4.7-2.2-9.4c-1.3-4.3-2.5-7.3-3.6-9.2h38.6
			c-0.4,0.8-0.6,1.5-0.6,2.2l0.2,80c0-0.4,0.2,0.6,0.6,3c0.4,2.7,1.6,7.1,3.6,13.4H1724.4z M1755.9,838.4c-3,3.2-6.6,4.8-10.7,4.8
			c-4.3,0-8-1.5-11.2-4.6c-3.2-3.1-4.8-6.7-4.8-11c0-4.3,1.4-8,4.2-11.2c2.8-3.2,6.3-4.8,10.4-4.8c4.7,0,8.6,1.5,11.8,4.5
			s4.8,6.8,4.8,11.3C1760.4,831.5,1758.9,835.2,1755.9,838.4z"/>
		<path class="st4" d="M1867.5,969.4c-7.1,4.1-15.3,6.2-24.6,6.2c-7.1,0-16.5-1-28.2-3c-9.2-1.6-13.6-2.4-13.2-2.4
			c-7.9,0-15.1,1.1-21.6,3.2c-0.4-0.9-0.6-2.2-0.6-3.8c0-13.3,7.5-20,22.6-20c6.5,0,13.7,2.7,21.4,8.2c7.7,5.5,13.2,8.2,16.4,8.2
			c2.5,0,4.7-1.3,6.6-4c1.6-2.1,2.4-4.7,2.4-7.6c0-0.7-1.8-6.6-5.4-17.8c-6.8,6.4-15.3,9.6-25.4,9.6c-17.6,0-29.3-10.2-35-30.6
			c-1.5-5.6-2.2-9.3-2.2-11c0-0.7,0.1-1.3,0.2-2v-6.2c-0.1-0.9-0.2-1.7-0.2-2.2c0-0.7,0-1.3,0-1.8c0-2.9,0.9-7.4,2.8-13.4
			c3.2-10,8.6-17.9,16.2-23.7c7.6-5.8,16.6-8.7,27-8.7h53.6c-3.2,6.7-4.8,11.9-4.8,15.8v64.4c0,2.4,0.8,6.1,2.4,11
			c1.7,4.7,2.6,8.4,2.6,11.2C1880.5,957.5,1876.2,964.3,1867.5,969.4z M1842.7,858c0-1.5-0.7-2.2-2.2-2.2h-8.4
			c-10.9,0-16.4,12.9-16.4,38.8c0,24.9,4.7,37.4,14,37.4c6.3,0,10.3-3.9,12-11.6c0.7-2.9,1-4.7,1-5.4V858z"/>
	</g>
</g>
<g id="Layer_1_00000111180788406943120360000007699146419817169053_" class="st0">
	<polygon class="st5" points="-21,499 -18,499 -18,499 	"/>
	<circle class="st6" cx="230.5" cy="765.5" r="615.5"/>
	<path class="st7" d="M706,1024v-11c0-15.5-12.5-28-28-28H338c-15.5,0-28-12.5-28-28v-11c0-15.5,12.5-28,28-28h203
		c15.5,0,28-12.5,28-28v-11c0-15.5-12.5-28-28-28h-74c-15.5,0-28-12.5-28-28v-11c0-15.5-12.5-28-28-28h-23c-15.5,0-28-12.5-28-28
		v-11c0-15.5,12.5-28,28-28h119c15.5,0,28-12.5,28-28v-11c0-15.5-12.5-28-28-28H338c-15.5,0-28-12.5-28-28v-4c0-15.5,12.5-28,28-28
		h94c15.5,0,28-12.5,28-28v-11c0-15.5-12.5-28-28-28h-60c-15.5,0-28-12.5-28-28v-11c0-15.5,12.5-28,28-28h72c15.5,0,28-12.5,28-28
		v-11c0-15.5-12.5-28-28-28h-4c-15.5,0-28-12.5-28-28v-8c0-15.5,12.5-28,28-28h62c15.5,0,28-12.5,28-28v-11c0-15.5-12.5-28-28-28
		H254c-15.5,0-28-12.5-28-28v-8c0-15.5,12.5-28,28-28h62c15.5,0,28-12.5,28-28v-5.9c-36.2-6.6-73.4-10.1-111.5-10.1
		c-140.3,0-269.7,47-373.2,126c1.7,3.6,2.7,7.7,2.7,12v6c0,15.5-12.5,28-28,28h-28.3c-19.1,18.4-37,38-53.6,58.7
		c5.1,5.1,12.1,8.3,19.9,8.3h4c15.5,0,28,12.5,28,28v11c0,15.5-12.5,28-28,28h-72c-1.3,0-2.5,0.1-3.8,0.3
		c-8.5,14.5-16.3,29.4-23.6,44.6c2.7,12.6,13.9,22.1,27.4,22.1h60c15.5,0,28,12.5,28,28v11c0,15.5-12.5,28-28,28h-94
		c-15.5,0-28,12.5-28,28v11c0,15.5,12.5,28,28,28h169c15.5,0,28,12.5,28,28v4c0,15.5-12.5,28-28,28h-119c-15.5,0-28,12.5-28,28v11
		c0,15.5,12.5,28,28,28h23c15.5,0,28,12.5,28,28v11c0,15.5,12.5,28,28,28h74c15.5,0,28,12.5,28,28v11c0,15.5-12.5,28-28,28h-203
		c-13.8,0-25.3,10-27.6,23.2c4,13.5,8.5,26.9,13.4,40c4.1,2.4,9,3.8,14.1,3.8h225c15.5,0,28,12.5,28,28v8c0,15.5-12.5,28-28,28l0,0
		c-15.5,0-28,12.5-28,28v11c0,15.5,12.5,28,28,28h612c15.5,0,28-12.5,28-28v-8c0-15.5,12.5-28,28-28h115
		C693.5,1052,706,1039.5,706,1024z"/>
</g>
<g id="Layer_4" class="st0">
	<circle class="st8" cx="43.5" cy="69.5" r="80.5"/>
	<g class="st9">
		<g>
			<defs>
				<circle id="SVGID_1_" cx="51.5" cy="69.5" r="80.5"/>
			</defs>
			<clipPath id="SVGID_00000158007117042407877620000013967921205660638596_">
				<use xlink:href="#SVGID_1_"  style="overflow:visible;"/>
			</clipPath>
			<path style="clip-path:url(#SVGID_00000158007117042407877620000013967921205660638596_);fill:#B2FFA9;" d="M207.5,58h-45
				c3,0,5.5-2.5,5.5-5.5V52c0-3-2.5-5.5-5.5-5.5h31c3,0,5.5-2.5,5.5-5.5v-0.5c0-3-2.5-5.5-5.5-5.5h-13c3,0,5.5-2.5,5.5-5.5V29
				c0-3-2.5-5.5-5.5-5.5h12c3,0,5.5-2.5,5.5-5.5v-0.5c0-3-2.5-5.5-5.5-5.5h13c3,0,5.5-2.5,5.5-5.5V6c0-3-2.5-5.5-5.5-5.5h-9
				c3,0,5.5-2.5,5.5-5.5v-0.5c0-3-2.5-5.5-5.5-5.5h-142c-3,0-5.5,2.5-5.5,5.5V-5c0,3,2.5,5.5,5.5,5.5h9C60.5,0.5,58,3,58,6v0.5
				c0,3,2.5,5.5,5.5,5.5h-13c-3,0-5.5,2.5-5.5,5.5V18c0,3,2.5,5.5,5.5,5.5h-12c-3,0-5.5,2.5-5.5,5.5v0.5c0,3,2.5,5.5,5.5,5.5h13
				c-3,0-5.5,2.5-5.5,5.5V41c0,3,2.5,5.5,5.5,5.5h-31c-3,0-5.5,2.5-5.5,5.5v0.5c0,3,2.5,5.5,5.5,5.5h45c-3,0-5.5,2.5-5.5,5.5V64
				c0,3,2.5,5.5,5.5,5.5h-19c-3,0-5.5,2.5-5.5,5.5v0.5c0,3,2.5,5.5,5.5,5.5h7c-3,0-5.5,2.5-5.5,5.5V87c0,3,2.5,5.5,5.5,5.5h-22
				c-3,0-5.5,2.5-5.5,5.5v0.5c0,3,2.5,5.5,5.5,5.5h14c-3,0-5.5,2.5-5.5,5.5v0.5c0,3,2.5,5.5,5.5,5.5h-23c-3,0-5.5,2.5-5.5,5.5v0.5
				c0,3,2.5,5.5,5.5,5.5h35c-3,0-5.5,2.5-5.5,5.5v0.5c0,3,2.5,5.5,5.5,5.5h-11c-3,0-5.5,2.5-5.5,5.5v0.5c0,3,2.5,5.5,5.5,5.5h142
				c3,0,5.5-2.5,5.5-5.5V144c0-3-2.5-5.5-5.5-5.5h11c3,0,5.5-2.5,5.5-5.5v-0.5c0-3-2.5-5.5-5.5-5.5h-35c3,0,5.5-2.5,5.5-5.5V121
				c0-3-2.5-5.5-5.5-5.5h23c3,0,5.5-2.5,5.5-5.5v-0.5c0-3-2.5-5.5-5.5-5.5h-14c3,0,5.5-2.5,5.5-5.5V98c0-3-2.5-5.5-5.5-5.5h22
				c3,0,5.5-2.5,5.5-5.5v-0.5c0-3-2.5-5.5-5.5-5.5h-7c3,0,5.5-2.5,5.5-5.5V75c0-3-2.5-5.5-5.5-5.5h19c3,0,5.5-2.5,5.5-5.5v-0.5
				C213,60.5,210.5,58,207.5,58z"/>
		</g>
	</g>
</g>
<g id="Layer_5" class="st0">
	<circle class="st8" cx="963" cy="564" r="59"/>
	<g class="st9">
		<g>
			<defs>
				<circle id="SVGID_00000147186432155075292060000011258200610045783740_" cx="963" cy="564" r="59"/>
			</defs>
			<clipPath id="SVGID_00000051375232183564876810000012742185859318439298_">
				<use xlink:href="#SVGID_00000147186432155075292060000011258200610045783740_"  style="overflow:visible;"/>
			</clipPath>
			<path style="clip-path:url(#SVGID_00000051375232183564876810000012742185859318439298_);fill:#B2FFA9;" d="M971,509.5v-3
				c0-1.4-1.1-2.5-2.5-2.5h-59c-1.4,0-2.5,1.1-2.5,2.5v3c0,1.4-1.1,2.5-2.5,2.5h-9c-1.4,0-2.5,1.1-2.5,2.5v3c0,1.4,1.1,2.5,2.5,2.5
				h1c1.4,0,2.5,1.1,2.5,2.5v3c0,1.4-1.1,2.5-2.5,2.5h-13c-1.4,0-2.5,1.1-2.5,2.5v3c0,1.4,1.1,2.5,2.5,2.5l0,0
				c1.4,0,2.5,1.1,2.5,2.5v3c0,1.4-1.1,2.5-2.5,2.5h-5c-1.4,0-2.5,1.1-2.5,2.5v3c0,1.4,1.1,2.5,2.5,2.5h18c1.4,0,2.5,1.1,2.5,2.5v3
				c0,1.4-1.1,2.5-2.5,2.5h-11c-1.4,0-2.5,1.1-2.5,2.5v3c0,1.4-1.1,2.5-2.5,2.5h-14c-1.4,0-2.5,1.1-2.5,2.5v3c0,1.4,1.1,2.5,2.5,2.5
				h25c1.4,0,2.5,1.1,2.5,2.5v3c0,1.4-1.1,2.5-2.5,2.5h-9c-1.4,0-2.5,1.1-2.5,2.5v3c0,1.4-1.1,2.5-2.5,2.5h-8
				c-1.4,0-2.5,1.1-2.5,2.5v3c0,1.4,1.1,2.5,2.5,2.5h9c1.4,0,2.5,1.1,2.5,2.5v3c0,1.4,1.1,2.5,2.5,2.5h13c1.4,0,2.5,1.1,2.5,2.5v3
				c0,1.4-1.1,2.5-2.5,2.5h-6c-1.4,0-2.5,1.1-2.5,2.5v3c0,1.4,1.1,2.5,2.5,2.5h59c1.4,0,2.5-1.1,2.5-2.5v-3c0-1.4,1.1-2.5,2.5-2.5h6
				c1.4,0,2.5-1.1,2.5-2.5v-3c0-1.4-1.1-2.5-2.5-2.5h-13c-1.4,0-2.5-1.1-2.5-2.5v-3c0-1.4-1.1-2.5-2.5-2.5h-9
				c-1.4,0-2.5-1.1-2.5-2.5v-3c0-1.4,1.1-2.5,2.5-2.5h8c1.4,0,2.5-1.1,2.5-2.5v-3c0-1.4,1.1-2.5,2.5-2.5h9c1.4,0,2.5-1.1,2.5-2.5v-3
				c0-1.4-1.1-2.5-2.5-2.5h-25c-1.4,0-2.5-1.1-2.5-2.5v-3c0-1.4,1.1-2.5,2.5-2.5h14c1.4,0,2.5-1.1,2.5-2.5v-3c0-1.4,1.1-2.5,2.5-2.5
				h11c1.4,0,2.5-1.1,2.5-2.5v-3c0-1.4-1.1-2.5-2.5-2.5h-18c-1.4,0-2.5-1.1-2.5-2.5v-3c0-1.4,1.1-2.5,2.5-2.5h5
				c1.4,0,2.5-1.1,2.5-2.5v-3c0-1.4-1.1-2.5-2.5-2.5l0,0c-1.4,0-2.5-1.1-2.5-2.5v-3c0-1.4,1.1-2.5,2.5-2.5h13c1.4,0,2.5-1.1,2.5-2.5
				v-3c0-1.4-1.1-2.5-2.5-2.5h-1c-1.4,0-2.5-1.1-2.5-2.5v-3c0-1.4,1.1-2.5,2.5-2.5h9C969.9,512,971,510.9,971,509.5z"/>
		</g>
	</g>
</g>
<g id="Layer_6" class="st0">
	<path class="st12" d="M542,84.5c-10.5,3.7-41.9-15-41.9-15l19.3-12.5l-17.5-18.8l43,4.3l-5.4-14.6c0,0,13.3-1.2,16.8,1.1
		c4.1,2.8,8.8,17.7,8.8,17.7S552.4,80.8,542,84.5z"/>
	<path class="st13" d="M544.8,80.2c-8.4,3-33.5-12-33.5-12l15.5-10l-14-15l34.4,3.4l-4.3-11.7c0,0,10.7-1,13.5,0.9
		c3.3,2.2,7,14.2,7,14.2S553.2,77.3,544.8,80.2z"/>
	<circle class="st14" cx="597.1" cy="89" r="53"/>
	<circle class="st15" cx="591.2" cy="84.5" r="45.2"/>
	<line class="st16" x1="534.6" y1="34.8" x2="394.6" y2="-47.2"/>
	<line class="st17" x1="496.6" y1="43.8" x2="356.6" y2="-38.2"/>
	<line class="st17" x1="501.6" y1="23.8" x2="361.6" y2="-58.2"/>
	<line class="st18" x1="492.6" y1="49.8" x2="352.6" y2="-32.2"/>
	<line class="st16" x1="502" y1="61" x2="362" y2="-21"/>
	<line class="st18" x1="532.6" y1="25.8" x2="392.6" y2="-56.2"/>
	<line class="st18" x1="431.6" y1="25.8" x2="291.6" y2="-56.2"/>
	<polygon class="st19" points="632.5,54.2 614.5,54.2 605.5,69.8 614.5,85.4 632.5,85.4 641.5,69.8 	"/>
</g>
</svg>
