<?xml version="1.0" encoding="utf-8"?>
<!-- Generator: Adobe Illustrator 26.5.0, SVG Export Plug-In . SVG Version: 6.00 Build 0)  -->
<svg version="1.1" id="Layer_1" xmlns="http://www.w3.org/2000/svg" xmlns:xlink="http://www.w3.org/1999/xlink" x="0px" y="0px"
	 viewBox="0 0 1920 1080" style="enable-background:new 0 0 1920 1080;" xml:space="preserve">
<style type="text/css">
	.st0{display:none;}
	.st1{display:inline;fill:#291F66;}
	.st2{display:inline;fill:none;}
	.st3{display:inline;fill:#417F32;}
	.st4{display:inline;fill:#44AFCC;}
	.st5{display:inline;fill:#373754;}
	.st6{display:inline;}
	.st7{clip-path:url(#SVGID_00000011723731421573070200000017229092403888160651_);fill:#B2FFA9;}
	.st8{clip-path:url(#SVGID_00000070820628032484947050000004318359702644979879_);fill:#B2FFA9;}
	.st9{fill:#F86624;}
	.st10{fill:#EA3546;}
	.st11{fill:#F427B6;}
	.st12{fill:#F45DD4;}
	.st13{fill:none;stroke:#CCCCCC;stroke-width:7;stroke-linecap:round;stroke-miterlimit:10;}
	.st14{fill:none;stroke:#999999;stroke-width:12;stroke-linecap:round;stroke-miterlimit:10;}
	.st15{fill:none;stroke:#808080;stroke-width:7;stroke-linecap:round;stroke-miterlimit:10;}
	.st16{fill:none;stroke:#F427B6;stroke-width:5;stroke-linecap:round;stroke-linejoin:round;stroke-miterlimit:10;}
</style>
<g id="Layer_2_00000004520089864662619720000007602834844117309625_" class="st0">
	<rect x="-18" y="-15" class="st1" width="1961" height="1115"/>
</g>
<g id="Layer_1_00000135674228727297323800000012323136177010563999_" class="st0">
	<polygon class="st2" points="-21,499 -18,499 -18,499 	"/>
	<circle class="st3" cx="230.5" cy="765.5" r="615.5"/>
	<path class="st4" d="M706,1024v-11c0-15.46-12.54-28-28-28H338c-15.46,0-28-12.54-28-28v-11c0-15.46,12.54-28,28-28h203
		c15.46,0,28-12.54,28-28v-11c0-15.46-12.54-28-28-28h-74c-15.46,0-28-12.54-28-28v-11c0-15.46-12.54-28-28-28h-23
		c-15.46,0-28-12.54-28-28v-11c0-15.46,12.54-28,28-28h119c15.46,0,28-12.54,28-28v-11c0-15.46-12.54-28-28-28H338
		c-15.46,0-28-12.54-28-28v-4c0-15.46,12.54-28,28-28h94c15.46,0,28-12.54,28-28v-11c0-15.46-12.54-28-28-28h-60
		c-15.46,0-28-12.54-28-28v-11c0-15.46,12.54-28,28-28h72c15.46,0,28-12.54,28-28v-11c0-15.46-12.54-28-28-28h-4
		c-15.46,0-28-12.54-28-28v-8c0-15.46,12.54-28,28-28h62c15.46,0,28-12.54,28-28v-11c0-15.46-12.54-28-28-28H254
		c-15.46,0-28-12.54-28-28v-8c0-15.46,12.54-28,28-28h62c15.46,0,28-12.54,28-28v-5.92C307.84,153.47,270.57,150,232.5,150
		c-140.32,0-269.66,46.96-373.19,126.01c1.72,3.63,2.69,7.7,2.69,11.99v6c0,15.46-12.54,28-28,28h-28.27
		c-19.1,18.39-37.02,37.99-53.63,58.69c5.07,5.13,12.12,8.31,19.9,8.31h4c15.46,0,28,12.54,28,28v11c0,15.46-12.54,28-28,28h-72
		c-1.28,0-2.54,0.09-3.78,0.26c-8.45,14.51-16.33,29.4-23.59,44.64c2.71,12.63,13.93,22.1,27.37,22.1h60c15.46,0,28,12.54,28,28v11
		c0,15.46-12.54,28-28,28h-94c-15.46,0-28,12.54-28,28v11c0,15.46,12.54,28,28,28h169c15.46,0,28,12.54,28,28v4
		c0,15.46-12.54,28-28,28h-119c-15.46,0-28,12.54-28,28v11c0,15.46,12.54,28,28,28h23c15.46,0,28,12.54,28,28v11
		c0,15.46,12.54,28,28,28h74c15.46,0,28,12.54,28,28v11c0,15.46-12.54,28-28,28h-203c-13.81,0-25.27,10-27.57,23.15
		c4.02,13.54,8.51,26.88,13.42,40.01C-340,983.6-335.16,985-330,985h225c15.46,0,28,12.54,28,28v8c0,15.46-12.54,28-28,28l0,0
		c-15.46,0-28,12.54-28,28v11c0,15.46,12.54,28,28,28h612c15.46,0,28-12.54,28-28v-8c0-15.46,12.54-28,28-28h115
		C693.46,1052,706,1039.46,706,1024z"/>
</g>
<g id="Layer_4" class="st0">
	<circle class="st5" cx="43.5" cy="69.5" r="80.5"/>
	<g class="st6">
		<g>
			<defs>
				<circle id="SVGID_1_" cx="51.5" cy="69.5" r="80.5"/>
			</defs>
			<clipPath id="SVGID_00000097493138366922562790000001462820323831590073_">
				<use xlink:href="#SVGID_1_"  style="overflow:visible;"/>
			</clipPath>
			<path style="clip-path:url(#SVGID_00000097493138366922562790000001462820323831590073_);fill:#B2FFA9;" d="M207.5,58h-45
				c3.04,0,5.5-2.46,5.5-5.5V52c0-3.04-2.46-5.5-5.5-5.5h31c3.04,0,5.5-2.46,5.5-5.5v-0.5c0-3.04-2.46-5.5-5.5-5.5h-13
				c3.04,0,5.5-2.46,5.5-5.5V29c0-3.04-2.46-5.5-5.5-5.5h12c3.04,0,5.5-2.46,5.5-5.5v-0.5c0-3.04-2.46-5.5-5.5-5.5h13
				c3.04,0,5.5-2.46,5.5-5.5V6c0-3.04-2.46-5.5-5.5-5.5h-9c3.04,0,5.5-2.46,5.5-5.5v-0.5c0-3.04-2.46-5.5-5.5-5.5h-142
				C51.46-11,49-8.54,49-5.5V-5c0,3.04,2.46,5.5,5.5,5.5h9C60.46,0.5,58,2.96,58,6v0.5c0,3.04,2.46,5.5,5.5,5.5h-13
				c-3.04,0-5.5,2.46-5.5,5.5V18c0,3.04,2.46,5.5,5.5,5.5h-12c-3.04,0-5.5,2.46-5.5,5.5v0.5c0,3.04,2.46,5.5,5.5,5.5h13
				c-3.04,0-5.5,2.46-5.5,5.5V41c0,3.04,2.46,5.5,5.5,5.5h-31c-3.04,0-5.5,2.46-5.5,5.5v0.5c0,3.04,2.46,5.5,5.5,5.5h45
				c-3.04,0-5.5,2.46-5.5,5.5V64c0,3.04,2.46,5.5,5.5,5.5h-19c-3.04,0-5.5,2.46-5.5,5.5v0.5c0,3.04,2.46,5.5,5.5,5.5h7
				c-3.04,0-5.5,2.46-5.5,5.5V87c0,3.04,2.46,5.5,5.5,5.5h-22c-3.04,0-5.5,2.46-5.5,5.5v0.5c0,3.04,2.46,5.5,5.5,5.5h14
				c-3.04,0-5.5,2.46-5.5,5.5v0.5c0,3.04,2.46,5.5,5.5,5.5h-23c-3.04,0-5.5,2.46-5.5,5.5v0.5c0,3.04,2.46,5.5,5.5,5.5h35
				c-3.04,0-5.5,2.46-5.5,5.5v0.5c0,3.04,2.46,5.5,5.5,5.5h-11c-3.04,0-5.5,2.46-5.5,5.5v0.5c0,3.04,2.46,5.5,5.5,5.5h142
				c3.04,0,5.5-2.46,5.5-5.5V144c0-3.04-2.46-5.5-5.5-5.5h11c3.04,0,5.5-2.46,5.5-5.5v-0.5c0-3.04-2.46-5.5-5.5-5.5h-35
				c3.04,0,5.5-2.46,5.5-5.5V121c0-3.04-2.46-5.5-5.5-5.5h23c3.04,0,5.5-2.46,5.5-5.5v-0.5c0-3.04-2.46-5.5-5.5-5.5h-14
				c3.04,0,5.5-2.46,5.5-5.5V98c0-3.04-2.46-5.5-5.5-5.5h22c3.04,0,5.5-2.46,5.5-5.5v-0.5c0-3.04-2.46-5.5-5.5-5.5h-7
				c3.04,0,5.5-2.46,5.5-5.5V75c0-3.04-2.46-5.5-5.5-5.5h19c3.04,0,5.5-2.46,5.5-5.5v-0.5C213,60.46,210.54,58,207.5,58z"/>
		</g>
	</g>
</g>
<g id="Layer_5" class="st0">
	<circle class="st5" cx="963" cy="564" r="59"/>
	<g class="st6">
		<g>
			<defs>
				<circle id="SVGID_00000158728608369137550930000012589506366812738228_" cx="963" cy="564" r="59"/>
			</defs>
			<clipPath id="SVGID_00000121991323352105900280000001848398867167086500_">
				<use xlink:href="#SVGID_00000158728608369137550930000012589506366812738228_"  style="overflow:visible;"/>
			</clipPath>
			<path style="clip-path:url(#SVGID_00000121991323352105900280000001848398867167086500_);fill:#B2FFA9;" d="M971,509.5v-3
				c0-1.38-1.12-2.5-2.5-2.5h-59c-1.38,0-2.5,1.12-2.5,2.5v3c0,1.38-1.12,2.5-2.5,2.5h-9c-1.38,0-2.5,1.12-2.5,2.5v3
				c0,1.38,1.12,2.5,2.5,2.5h1c1.38,0,2.5,1.12,2.5,2.5v3c0,1.38-1.12,2.5-2.5,2.5h-13c-1.38,0-2.5,1.12-2.5,2.5v3
				c0,1.38,1.12,2.5,2.5,2.5l0,0c1.38,0,2.5,1.12,2.5,2.5v3c0,1.38-1.12,2.5-2.5,2.5h-5c-1.38,0-2.5,1.12-2.5,2.5v3
				c0,1.38,1.12,2.5,2.5,2.5h18c1.38,0,2.5,1.12,2.5,2.5v3c0,1.38-1.12,2.5-2.5,2.5h-11c-1.38,0-2.5,1.12-2.5,2.5v3
				c0,1.38-1.12,2.5-2.5,2.5h-14c-1.38,0-2.5,1.12-2.5,2.5v3c0,1.38,1.12,2.5,2.5,2.5h25c1.38,0,2.5,1.12,2.5,2.5v3
				c0,1.38-1.12,2.5-2.5,2.5h-9c-1.38,0-2.5,1.12-2.5,2.5v3c0,1.38-1.12,2.5-2.5,2.5h-8c-1.38,0-2.5,1.12-2.5,2.5v3
				c0,1.38,1.12,2.5,2.5,2.5h9c1.38,0,2.5,1.12,2.5,2.5v3c0,1.38,1.12,2.5,2.5,2.5h13c1.38,0,2.5,1.12,2.5,2.5v3
				c0,1.38-1.12,2.5-2.5,2.5h-6c-1.38,0-2.5,1.12-2.5,2.5v3c0,1.38,1.12,2.5,2.5,2.5h59c1.38,0,2.5-1.12,2.5-2.5v-3
				c0-1.38,1.12-2.5,2.5-2.5h6c1.38,0,2.5-1.12,2.5-2.5v-3c0-1.38-1.12-2.5-2.5-2.5h-13c-1.38,0-2.5-1.12-2.5-2.5v-3
				c0-1.38-1.12-2.5-2.5-2.5h-9c-1.38,0-2.5-1.12-2.5-2.5v-3c0-1.38,1.12-2.5,2.5-2.5h8c1.38,0,2.5-1.12,2.5-2.5v-3
				c0-1.38,1.12-2.5,2.5-2.5h9c1.38,0,2.5-1.12,2.5-2.5v-3c0-1.38-1.12-2.5-2.5-2.5h-25c-1.38,0-2.5-1.12-2.5-2.5v-3
				c0-1.38,1.12-2.5,2.5-2.5h14c1.38,0,2.5-1.12,2.5-2.5v-3c0-1.38,1.12-2.5,2.5-2.5h11c1.38,0,2.5-1.12,2.5-2.5v-3
				c0-1.38-1.12-2.5-2.5-2.5h-18c-1.38,0-2.5-1.12-2.5-2.5v-3c0-1.38,1.12-2.5,2.5-2.5h5c1.38,0,2.5-1.12,2.5-2.5v-3
				c0-1.38-1.12-2.5-2.5-2.5l0,0c-1.38,0-2.5-1.12-2.5-2.5v-3c0-1.38,1.12-2.5,2.5-2.5h13c1.38,0,2.5-1.12,2.5-2.5v-3
				c0-1.38-1.12-2.5-2.5-2.5h-1c-1.38,0-2.5-1.12-2.5-2.5v-3c0-1.38,1.12-2.5,2.5-2.5h9C969.88,512,971,510.88,971,509.5z"/>
		</g>
	</g>
</g>
<g id="Layer_6">
	<path class="st9" d="M541.98,84.46c-10.49,3.7-41.89-15.03-41.89-15.03l19.33-12.54l-17.53-18.77l42.97,4.29l-5.43-14.57
		c0,0,13.31-1.19,16.82,1.15c4.11,2.75,8.8,17.71,8.8,17.71S552.41,80.78,541.98,84.46z"/>
	<path class="st10" d="M544.85,80.2c-8.4,2.96-33.53-12.03-33.53-12.03l15.47-10.03l-14.03-15.02l34.39,3.43l-4.34-11.66
		c0,0,10.66-0.95,13.46,0.92c3.29,2.2,7.05,14.17,7.05,14.17S553.2,77.26,544.85,80.2z"/>
	<circle class="st11" cx="597.12" cy="89.02" r="53"/>
	<circle class="st12" cx="591.17" cy="84.5" r="45.17"/>
	<line class="st13" x1="534.56" y1="34.8" x2="394.56" y2="-47.2"/>
	<line class="st14" x1="496.56" y1="43.8" x2="356.56" y2="-38.2"/>
	<line class="st14" x1="501.56" y1="23.8" x2="361.56" y2="-58.2"/>
	<line class="st15" x1="492.56" y1="49.8" x2="352.56" y2="-32.2"/>
	<line class="st13" x1="502" y1="61" x2="362" y2="-21"/>
	<line class="st15" x1="532.56" y1="25.8" x2="392.56" y2="-56.2"/>
	<line class="st15" x1="431.56" y1="25.8" x2="291.56" y2="-56.2"/>
	<polygon class="st16" points="632.5,54.2 614.5,54.2 605.5,69.79 614.5,85.38 632.5,85.38 641.5,69.79 	"/>
</g>
</svg>
